<?xml version="1.0" standalone="no"?><!-- Generator: Gravit.io --><svg xmlns="http://www.w3.org/2000/svg" xmlns:xlink="http://www.w3.org/1999/xlink" style="isolation:isolate" viewBox="0 0 20 20" width="20" height="20"><defs><clipPath id="_clipPath_bDHE2z43SN7RHLUD2RTSqzV533lBlSPu"><rect width="20" height="20"/></clipPath></defs><g clip-path="url(#_clipPath_bDHE2z43SN7RHLUD2RTSqzV533lBlSPu)"><path d=" M 0 10 C 0 4.481 4.481 0 10 0 C 15.519 0 20 4.481 20 10 C 20 15.519 15.519 20 10 20 C 4.481 20 0 15.519 0 10 Z " fill="rgb(255,209,71)"/><path d=" M 3.333 10 C 3.333 6.321 6.321 3.333 10 3.333 C 13.679 3.333 16.667 6.321 16.667 10 C 16.667 13.679 13.679 16.667 10 16.667 C 6.321 16.667 3.333 13.679 3.333 10 Z " fill="rgb(207,169,58)"/><path d=" M 7.595 13.667 L 7.595 6.333 L 10.527 6.333 L 10.527 6.333 Q 11.397 6.333 11.825 6.406 L 11.825 6.406 L 11.825 6.406 Q 12.252 6.478 12.59 6.709 L 12.59 6.709 L 12.59 6.709 Q 12.928 6.939 13.153 7.321 L 13.153 7.321 L 13.153 7.321 Q 13.378 7.704 13.378 8.179 L 13.378 8.179 L 13.378 8.179 Q 13.378 8.694 13.1 9.125 L 13.1 9.125 L 13.1 9.125 Q 12.823 9.555 12.347 9.77 L 12.347 9.77 L 12.347 9.77 Q 13.018 9.965 13.378 10.435 L 13.378 10.435 L 13.378 10.435 Q 13.738 10.905 13.738 11.541 L 13.738 11.541 L 13.738 11.541 Q 13.738 12.041 13.505 12.514 L 13.505 12.514 L 13.505 12.514 Q 13.273 12.986 12.87 13.269 L 12.87 13.269 L 12.87 13.269 Q 12.467 13.552 11.877 13.617 L 11.877 13.617 L 11.877 13.617 Q 11.507 13.657 10.091 13.667 L 10.091 13.667 L 7.595 13.667 Z  M 9.926 7.554 L 9.076 7.554 L 9.076 9.25 L 10.046 9.25 L 10.046 9.25 Q 10.912 9.25 11.122 9.225 L 11.122 9.225 L 11.122 9.225 Q 11.502 9.18 11.72 8.962 L 11.72 8.962 L 11.72 8.962 Q 11.937 8.744 11.937 8.389 L 11.937 8.389 L 11.937 8.389 Q 11.937 8.049 11.75 7.837 L 11.75 7.837 L 11.75 7.837 Q 11.562 7.624 11.192 7.579 L 11.192 7.579 L 11.192 7.579 Q 10.972 7.554 9.926 7.554 L 9.926 7.554 Z  M 10.271 10.47 L 9.076 10.47 L 9.076 12.431 L 10.447 12.431 L 10.447 12.431 Q 11.247 12.431 11.462 12.386 L 11.462 12.386 L 11.462 12.386 Q 11.792 12.326 12 12.093 L 12 12.093 L 12 12.093 Q 12.207 11.861 12.207 11.471 L 12.207 11.471 L 12.207 11.471 Q 12.207 11.141 12.047 10.91 L 12.047 10.91 L 12.047 10.91 Q 11.887 10.68 11.585 10.575 L 11.585 10.575 L 11.585 10.575 Q 11.282 10.47 10.271 10.47 L 10.271 10.47 Z " fill-rule="evenodd" fill="rgb(255,209,71)"/></g></svg>